# xmcd
#
# Track frame offsets: 
#        150
#        82381
#        168755
#
# Disc length: 2549 seconds
#
# Revision: 0
# Processed by: cddbd v1.5.2PL0 Copyright (c) Steve Scherf et al.
# Submitted via: ExactAudioCopy v0.99pb5
#
DISCID=1d09f303
DTITLE=Blues Traveler - Chestnut Cabaret, Philadelphia, Pa. 1991-01-28
DTITLE=CD 3
DYEAR=1991
DGENRE=Blues
TTITLE0=01 Crystal Flame
TTITLE1=02 Sweet Talking Hippie
TTITLE2=03 Dropping Some NYC
EXTD=
EXTT0=
EXTT1=
EXTT2=
PLAYORDER=
